# xmcd
#
# Track frame offsets: 
#        150
#        46355
#        53725
#        72371
#        98311
#        130258
#        144863
#        169640
#        186302
#
# Disc length: 2742 seconds
#
# Revision: 0
# Processed by: cddbd v1.5.2PL0 Copyright (c) Steve Scherf et al.
# Submitted via: ExactAudioCopy v0.95a5
#
DISCID=730ab409
DTITLE=The Eagles - Long Road Out Of Eden [CD 2)
DYEAR=2007
DGENRE=Country
TTITLE0=Long Road Out Of Eden
TTITLE1=I Dreamed There Was No War
TTITLE2=Somebody
TTITLE3=Final Grasp On The Big Picture
TTITLE4=Last Good Time In Town
TTITLE5=I Love To Watch A Woman Dance
TTITLE6=Business As Usual
TTITLE7=Center Of The Universe
TTITLE8=It's Your World Now
EXTD=
EXTT0=
EXTT1=
EXTT2=
EXTT3=
EXTT4=
EXTT5=
EXTT6=
EXTT7=
EXTT8=
PLAYORDER=
